<?xml version="1.0" encoding="utf-8"?>
<!-- Generator: Adobe Illustrator 27.5.0, SVG Export Plug-In . SVG Version: 6.00 Build 0)  -->
<svg version="1.1" id="Слой_1" xmlns="http://www.w3.org/2000/svg" xmlns:xlink="http://www.w3.org/1999/xlink" x="0px" y="0px"
	 viewBox="0 0 443.19 675.89" style="enable-background:new 0 0 443.19 675.89;" xml:space="preserve">
<style type="text/css">
	.st0{fill:#5E3D8A;}
	.st1{font-family:'Apple-Chancery';}
	.st2{font-size:20.9889px;}
	.st3{letter-spacing:3.08;}
	.st4{fill:#5E3D8B;}
</style>
<g>
	<g>
		<g>
			<g>
				<path class="st0" d="M130.45,403.24c-0.27-0.8-0.43-1.32-0.76-2.11c-1.08-2.44-2.11-2.87-6.07-2.87h-5.59
					c-1.46,0-1.63,0.14-1.63,1.41V411h7.1c4.01,0,4.28-0.33,5.15-3.67h0.71v8.79h-0.71c-0.81-3.38-1.25-3.76-5.26-3.76h-7v9.87
					c0,3.71,0.22,4.18,5.1,4.75v0.56h-13.67v-0.56c4.23-0.47,4.72-0.94,4.72-4.75V402.3c0-3.85-0.38-4.18-4.72-4.75v-0.56h16
					c5.04,0,6.45-0.05,7.05-0.09c-0.05,1.22,0.11,4.51,0.33,6.25L130.45,403.24z"/>
				<path class="st0" d="M160.54,420.44c-0.27,1.32-1.36,5.4-1.95,7.1h-24.02v-0.56c4.83-0.56,5.1-0.94,5.1-4.79v-19.97
					c0-3.85-0.49-4.18-4.72-4.65v-0.56h12.96v0.56c-4.01,0.61-4.39,0.8-4.39,4.65v20.63c0,3.34,0.65,3.48,4.28,3.48
					c1.03,0,2.71-0.05,3.63-0.05c3.2,0,4.5-0.05,5.91-1.83c0.92-1.17,1.68-2.4,2.44-4.18L160.54,420.44z"/>
				<path class="st0" d="M181.58,427.54v-0.56c2.98-0.47,3.8-0.85,3.15-2.54c-0.71-2.02-2.06-5.45-3.69-9.35h-10.9
					c-1.19,3.01-2.22,5.4-3.04,7.66c-1.19,3.2-0.38,3.53,3.74,4.23v0.56h-11.33v-0.56c3.04-0.47,3.96-0.8,5.97-5.22l11.28-25.33
					l0.76-0.09c3.36,8.55,6.89,17.15,10.52,25.9c1.68,4.09,2.33,4.09,5.75,4.75v0.56H181.58z M175.73,401.74
					c-1.74,4-3.36,8.08-5.04,11.98h9.87L175.73,401.74z"/>
				<path class="st0" d="M225.88,397.56c-3.63,0.52-4.18,1.17-6.13,5.22c-1.68,3.62-7.48,16.36-11.55,25.47h-0.76
					c-3.58-8.74-7.27-17.53-10.85-26.13c-1.52-3.67-2.28-4.04-5.8-4.56v-0.56h12.69v0.56c-3.63,0.61-4.07,1.13-3.42,2.91
					c1.36,3.62,7.92,18.94,9.27,22.04c2.17-4.79,6.4-14.71,8.89-20.77c1.19-2.87,1.14-3.57-3.74-4.18v-0.56h11.39V397.56z"/>
				<path class="st0" d="M243.72,396.33c9.11,0,17.14,6.34,17.14,15.51c0,9.87-7.86,16.4-17.57,16.4c-9.54,0-17.19-6.77-17.19-15.51
					C226.1,404.23,232.82,396.33,243.72,396.33z M242.69,397.37c-6.29,0-11.93,4.89-11.93,14c0,9.21,5.53,15.79,13.72,15.79
					c6.4,0,11.71-4.79,11.71-13.86C256.2,403.15,250.5,397.37,242.69,397.37z"/>
				<path class="st0" d="M296.65,427.78c-0.43,0-1.74,0-2.12-0.05c-4.56-0.24-5.64-0.71-7.81-3.24c-1.79-2.16-4.39-5.92-6.29-8.74
					c-1.41-2.07-2.01-2.35-4.77-2.35h-2.28v8.93c0,3.62,0.43,4.14,4.77,4.65v0.56h-13.34v-0.56c4.23-0.56,4.72-0.94,4.72-4.65
					v-20.21c0-3.62-0.38-3.99-4.72-4.56v-0.56h12.96c3.69,0,6.62,0.52,8.57,1.74c1.95,1.13,3.31,3.24,3.31,5.78
					c0,3.85-2.98,6.53-6.94,8.04c1.03,1.6,3.52,5.17,5.15,7.28c1.84,2.44,3.25,4.23,4.5,5.41c1.36,1.27,2.28,1.64,4.45,1.97
					L296.65,427.78z M276.69,412.46c2.71,0,4.23-0.09,5.75-1.03c2.17-1.32,2.87-3.24,2.87-6.06c0-5.12-3.25-7.43-7.86-7.43
					c-2.01,0-2.98,0.19-3.42,0.42c-0.49,0.28-0.65,0.71-0.65,2.21v11.89H276.69z"/>
				<path class="st0" d="M314.76,427.54v-0.56c2.98-0.47,3.8-0.85,3.15-2.54c-0.71-2.02-2.06-5.45-3.69-9.35h-10.9
					c-1.19,3.01-2.22,5.4-3.04,7.66c-1.19,3.2-0.38,3.53,3.74,4.23v0.56h-11.33v-0.56c3.04-0.47,3.96-0.8,5.97-5.22l11.28-25.33
					l0.76-0.09c3.36,8.55,6.89,17.15,10.52,25.9c1.68,4.09,2.33,4.09,5.75,4.75v0.56H314.76z M308.9,401.74
					c-1.74,4-3.36,8.08-5.04,11.98h9.87L308.9,401.74z"/>
			</g>
		</g>
		<text transform="matrix(1.3 0 0 1 107.585 448.0932)" class="st0 st1 st2 st3">soul of drinks</text>
	</g>
	<g>
		<g>
			<g>
				<path class="st4" d="M178.08,317.19c-18.62,3.8-39.53-0.24-54.12-12.95c-9.62-8.23-15.81-19.78-19.51-31.69
					c8.62-2.39,17.53-2.76,26.39-2.47c19.58,0.87,40,7.74,52.83,23.18c2.53,3.01,4.65,6.3,6.53,9.69c-2.26-3.06-4.82-6.07-7.56-8.74
					c-19.08-18.53-49.1-22.43-74.35-17.51c0,0,1.73-3.18,1.73-3.18C119.8,304.62,146.41,319.11,178.08,317.19L178.08,317.19z"/>
			</g>
			<g>
				<path class="st4" d="M190.93,304.22c-18.35-33.19-12.04-70.04,17.24-94.52c2.05-1.73,4.42-3.46,6.5-5.16
					c3.53-2.38,7.84-5.48,11.58-7.51c14.81-8.78,31.06-14.87,47.44-19.91c0,0,0.47,1.97,0.47,1.97
					c13.82,56.87-2.47,115.1-56.24,143.93c-8.16,4.39-16.63,8.2-25.65,10.81c-4,1.15-8.2,2.04-12.39,2.16
					c-5.09-0.01-9.95,0.54-14.99,1.34c-3.2,0.52-6.53,0.91-9.5,1.95c-4.32,1.54-1.49,8.85-0.37,12.01c1.57,4.06,3.7,8,5.87,11.99
					c4.72,8.93,10.59,16.25,21.42,12.42c11.94-3.32,23.29-8.38,34.48-13.76c26.46-13,51.92-28.27,76.6-44.44
					c8.01-4.61,1.79-10.79,6.36-16.21c0.51-0.57,1.13-0.94,1.74-1.35c8.47-4.08,17.01-8.12,25.44-12.36
					c0.82-0.45,1.74-0.72,2.35-1.39c2.15-2.87-0.83-7.77-2.9-10.03c-1.71-1.74-3.98-3.04-6.37-3.6c-0.63-0.16-1.25,0-1.82,0.29
					c-1.24,0.65-6.38,3.14-7.76,3.82c-3.77,1.84-7.57,3.6-11.22,5.61c-1.86,1.05-3.89,1.8-5.99,2.2c-6.3,1.18-12.73-0.83-18.23-3.79
					c5.57,2.74,11.94,4.52,18.1,3.16c2.01-0.45,3.93-1.24,5.7-2.29c3.64-2.13,7.4-3.99,11.12-5.91c0,0,5.57-2.9,5.57-2.9
					c0.99-0.48,2.63-1.61,3.83-1.64c4.17,0.29,8.07,3.03,10.3,6.51c1.74,2.83,3.51,6.84,1.12,9.87c-0.77,0.94-1.93,1.38-2.93,1.93
					c-8.3,4.44-16.71,8.72-25.15,12.95c-3.67,2.39-0.81,7.73-2.56,11.9c-1.74,4.79-6.89,6.76-10.65,9.63
					c-7.58,5.1-15.26,10.05-23.02,14.86c-23.38,14.33-47.21,28.38-72.99,38.11c-2.86,1.16-6.96,2.36-9.91,3.26
					c-13.05,4.52-21.3-3.81-26.84-14.53c-3.72-7.22-13.56-22.99-5.11-29.78c1.77-1.22,3.81-1.67,5.7-2.12
					c4.66-0.96,9.06-1.57,13.76-2.16c3.42-0.43,6.9-0.39,10.31-0.57c2.65-0.22,5.37-0.81,7.96-1.47
					c69.18-20.57,96.34-81.53,81.17-149.55c0,0,2.38,1.38,2.38,1.38c-20.72,6.13-41.27,14.14-58.68,27.12
					c-2.51,1.81-6,4.73-8.3,6.88c-1.39,1.15-2.57,2.5-3.83,3.78c-1.17,1.14-2.63,2.72-3.62,3.98
					C178.45,245.3,177.31,278.39,190.93,304.22L190.93,304.22z"/>
			</g>
		</g>
		<g>
			<path class="st4" d="M160.03,359.84c-3.88-5.14-8.55-14.51-1.52-19.19c3.2-1.96,6.83-2.24,10.37-2.64
				c6.76-0.57,13.49-0.74,20.19-1.4c10.07-1.04,19.97-2.87,30.11-4.01c6.71-0.72,13.42-1.48,20.11-2.31
				c10.01-1.21,20.01-2.43,29.83-4.62c9.88-2.04,19.07-6.08,26.93-12.62c-8.97,10.56-22.8,15.61-36.04,18.35
				c-19.96,4.35-40.16,5.91-60.38,8.64c-9.77,1.28-20.69,1.25-30.57,1.23c-3.12,0.09-6.55,0.12-9.31,1.48
				C153.54,346.29,157.67,354.93,160.03,359.84L160.03,359.84z"/>
		</g>
	</g>
</g>
</svg>
